<svg width="41" height="62" viewBox="0 0 41 62" fill="none" xmlns="http://www.w3.org/2000/svg">
<path d="M20.7561 40.2927V59.8049C30.4546 59.9996 39.3815 53.5951 39.5366 43.9512L39.7805 21.2683M20.7561 40.2927L39.7805 21.2683M20.7561 40.2927V20.7805M20.7561 40.2927C8.36472 38.9187 1.84723 34.8829 1.48779 23.4634V2C13.2028 3.46501 17.5309 7.4244 20.7561 20.7805M39.7805 21.2683L20.7561 20.7805M39.7805 21.2683V2C27.9554 3.78529 23.1507 7.09027 20.7561 20.7805" stroke="white" stroke-width="2"/>
<path d="M19.0244 52.4878C19.0244 57.189 15.2134 61 10.5122 61C5.81104 61 2 57.189 2 52.4878C2 47.7867 5.81104 43.9756 10.5122 43.9756C15.2134 43.9756 19.0244 47.7867 19.0244 52.4878Z" fill="#7E41FF" stroke="white" stroke-width="2"/>
</svg>
